<?xml version="1.0" standalone="no"?>
<!DOCTYPE svg PUBLIC "-//W3C//DTD SVG 20010904//EN"
 "http://www.w3.org/TR/2001/REC-SVG-20010904/DTD/svg10.dtd">
<svg version="1.0" xmlns="http://www.w3.org/2000/svg"
 width="900.000000pt" height="473.000000pt" viewBox="0 0 900.000000 473.000000"
 preserveAspectRatio="xMidYMid meet">

<g transform="translate(0.000000,473.000000) scale(0.100000,-0.100000)"
fill="#000000" stroke="none">
<path d="M5191 4714 c0 -11 3 -14 6 -6 3 7 2 16 -1 19 -3 4 -6 -2 -5 -13z"/>
<path d="M5199 4625 c-3 -33 -4 -291 -3 -572 l1 -513 -26 -1 c-129 -5 -198
-19 -336 -64 -126 -41 -235 -103 -358 -202 l-77 -63 -78 57 c-42 31 -89 67
-104 81 -16 14 -28 22 -28 18 0 -11 47 -66 52 -61 2 3 32 -24 67 -59 53 -53
60 -65 49 -77 -37 -39 -122 -165 -162 -240 -25 -46 -59 -129 -77 -184 -18 -55
-34 -102 -36 -104 -2 -2 -13 1 -26 7 -63 30 -121 19 -180 -34 -18 -17 -51 -38
-72 -45 -20 -8 -45 -23 -54 -35 -9 -12 -36 -24 -67 -30 l-50 -10 13 50 c15 58
10 95 -16 125 -22 25 -30 26 -73 4 -18 -9 -46 -23 -63 -32 -47 -23 -70 -36
-75 -41 -21 -21 -137 -90 -152 -90 -23 0 -24 46 -3 74 21 28 19 50 -11 85 -30
36 -49 38 -84 11 -14 -11 -29 -20 -34 -20 -5 0 -36 -14 -70 -30 -34 -17 -84
-33 -111 -36 -47 -5 -54 -3 -114 38 -63 42 -67 43 -158 46 -78 3 -99 1 -136
-17 -63 -31 -124 -87 -132 -120 -3 -16 -13 -35 -20 -41 -9 -7 -12 -22 -9 -39
4 -19 -4 -44 -25 -84 -17 -32 -31 -65 -31 -73 0 -13 -6 -15 -27 -9 -15 3 -30
10 -33 15 -3 5 -14 8 -24 7 -33 -3 -29 22 8 44 20 11 36 23 36 25 0 2 -15 1
-32 -2 -29 -5 -26 -1 30 35 34 23 67 41 72 41 6 0 10 5 10 10 0 23 -115 -28
-173 -76 -26 -22 -32 -23 -51 -11 -25 17 -36 56 -23 78 14 22 -30 97 -80 138
-21 17 -31 31 -23 31 21 0 140 80 140 95 0 6 11 17 24 23 15 6 37 36 56 76 31
62 32 70 25 138 -6 67 -23 149 -40 190 -4 9 -1 26 5 38 34 64 -68 200 -149
200 -15 0 -23 10 -30 38 -6 20 -11 40 -11 43 0 9 86 32 102 27 7 -3 28 1 46 9
18 8 56 18 84 23 28 6 58 16 66 23 8 6 29 16 46 22 24 8 32 17 34 38 2 16 -2
35 -9 43 -13 16 -85 19 -94 4 -3 -5 -17 -10 -29 -10 -13 0 -42 -6 -64 -14 -38
-14 -39 -13 -35 5 7 27 -4 24 -51 -14 -51 -42 -153 -90 -173 -83 -8 4 -17 15
-20 27 -4 16 -11 19 -27 14 -27 -8 -7 -8 -246 0 -184 7 -206 6 -219 -9 -18
-22 -22 -21 -66 14 -21 17 -42 30 -48 30 -5 0 6 -13 26 -29 41 -32 39 -41 -10
-41 -29 0 -33 -3 -28 -19 4 -15 -5 -22 -57 -40 -108 -37 -140 -56 -228 -133
-63 -56 -96 -94 -127 -149 -57 -99 -121 -271 -134 -361 -10 -65 -9 -81 10
-147 19 -67 40 -100 66 -101 5 0 -1 8 -14 17 -23 16 -23 17 -5 24 18 7 17 8
-3 8 -18 1 -21 7 -21 31 1 45 15 46 37 1 21 -40 50 -70 38 -38 -9 23 -1 21 24
-4 19 -19 30 -21 96 -17 71 3 77 6 103 36 14 17 31 32 37 32 15 0 83 64 83 78
0 6 9 16 20 22 32 17 121 110 132 139 13 32 11 106 -2 132 -12 22 -43 25 -57
7 -5 -7 -17 -33 -27 -58 -9 -25 -30 -63 -46 -85 -16 -22 -34 -51 -40 -65 -20
-45 -133 -146 -176 -156 -60 -15 -84 -8 -84 24 0 35 19 102 28 102 4 0 16 14
26 31 21 35 161 180 209 215 31 23 245 134 259 134 16 0 18 -43 4 -85 -20 -58
-20 -62 5 -68 18 -5 20 -1 19 26 -1 18 -1 35 0 40 1 4 4 25 5 47 1 22 3 44 4
49 1 11 98 30 122 24 25 -7 24 -9 -12 -90 -38 -83 -100 -262 -100 -285 0 -9
-7 -22 -15 -29 -8 -6 -14 -16 -14 -22 0 -6 -7 -18 -15 -27 -8 -9 -31 -74 -51
-145 -20 -72 -45 -140 -56 -151 -13 -15 -17 -29 -13 -47 4 -16 2 -28 -7 -34
-8 -4 -38 -43 -68 -85 -61 -89 -90 -102 -90 -42 0 27 -4 35 -14 31 -23 -9 -25
15 -5 55 25 49 38 55 59 28 l17 -23 22 22 c11 11 21 33 21 47 0 24 -2 26 -41
21 -44 -5 -81 -34 -106 -81 -33 -63 7 -166 64 -166 27 0 29 -8 8 -24 -9 -6
-31 -57 -50 -114 -27 -80 -47 -117 -86 -166 -28 -35 -62 -69 -77 -75 -41 -19
-113 -24 -160 -12 l-43 12 38 28 c50 36 88 82 120 145 23 43 27 64 27 136 1
75 -1 85 -19 95 -12 5 -37 26 -57 46 -41 42 -69 49 -185 49 -78 0 -92 -3 -167
-38 -72 -34 -93 -51 -191 -155 -93 -97 -114 -124 -128 -170 -39 -124 -5 -276
85 -380 30 -34 44 -41 143 -68 138 -37 213 -33 320 16 39 18 94 40 124 50 33
11 93 47 158 96 58 44 109 79 113 79 5 0 10 -5 12 -12 2 -6 10 -8 17 -4 9 6 8
11 -4 20 -14 10 -12 15 15 41 16 16 30 26 30 23 0 -13 123 122 140 154 51 93
68 130 74 165 4 21 14 70 22 108 9 39 18 80 20 93 3 13 12 22 22 22 9 0 22 10
27 23 14 31 90 66 146 67 29 0 51 6 59 15 23 28 52 13 87 -45 36 -58 37 -81 9
-143 -8 -18 -19 -48 -25 -67 -6 -19 -28 -89 -50 -155 -22 -66 -45 -148 -51
-183 -8 -40 -17 -62 -26 -62 -17 0 -18 -16 -3 -26 8 -5 10 -34 6 -95 -4 -48
-2 -122 3 -165 10 -77 39 -184 49 -184 3 0 7 -11 7 -25 2 -29 34 -69 91 -115
23 -19 40 -36 37 -39 -2 -3 -28 -8 -57 -12 -29 -4 -94 -16 -146 -28 -52 -12
-114 -21 -139 -21 -24 0 -70 -6 -101 -14 -131 -34 -206 -39 -316 -25 l-106 13
-39 53 c-22 28 -40 57 -40 63 0 6 10 26 22 44 20 30 35 38 125 66 69 22 113
30 133 26 17 -3 103 -33 191 -66 133 -50 171 -60 222 -60 51 0 64 4 74 20 11
16 9 23 -9 40 -12 11 -31 20 -43 20 -12 0 -42 11 -66 25 -118 66 -238 121
-273 124 -46 3 -159 -16 -201 -34 -16 -7 -46 -16 -67 -19 -20 -4 -61 -23 -91
-43 -45 -30 -61 -47 -81 -94 -26 -57 -26 -57 -8 -98 10 -22 44 -63 74 -89 59
-52 86 -60 263 -77 63 -6 276 24 314 44 11 6 33 11 50 11 16 0 42 5 58 11 15
5 74 14 131 19 57 5 127 17 156 26 l53 17 39 -27 c21 -14 48 -26 60 -26 11 0
24 -3 28 -7 4 -4 22 -9 39 -10 59 -3 102 -15 115 -31 13 -18 132 -54 132 -41
0 4 -6 10 -12 12 -7 3 -4 6 7 7 28 2 70 6 143 15 67 8 68 8 172 105 32 30 46
37 48 27 4 -18 -36 -83 -65 -110 -27 -24 -120 -57 -160 -57 -27 0 -52 -15 -42
-25 9 -8 157 23 187 39 38 20 84 87 107 156 17 51 48 89 60 71 3 -6 16 -11 27
-11 12 0 31 -9 43 -20 23 -22 20 -22 185 -16 166 5 310 42 338 86 9 15 9 26 1
44 -10 21 -8 29 15 56 20 25 26 42 26 78 -1 44 -4 49 -54 89 -66 54 -123 79
-206 92 -94 16 -157 13 -225 -8 -33 -10 -93 -22 -133 -26 l-73 -7 -37 42 c-39
46 -123 105 -165 115 -18 5 -37 29 -72 90 -25 46 -55 91 -66 101 -10 9 -19 26
-19 37 0 10 -16 35 -36 55 -37 37 -94 139 -94 168 0 10 -6 25 -14 33 -7 9 -17
26 -20 38 -5 17 -3 21 11 18 10 -2 26 -4 36 -4 14 -1 17 -10 17 -47 0 -34 7
-56 29 -87 68 -98 108 -114 245 -98 54 6 106 15 115 20 9 5 40 34 69 65 75 79
67 133 -10 68 -79 -67 -182 -99 -243 -76 -19 7 -55 75 -55 102 0 28 39 135 51
143 7 4 26 3 43 -2 45 -13 250 -49 280 -49 19 0 34 11 54 38 26 37 29 39 84
38 33 0 58 -5 58 -11 0 -5 -10 -30 -22 -55 -11 -25 -26 -72 -32 -105 -10 -52
-15 -61 -39 -69 -22 -8 -35 -6 -63 9 -36 19 -36 19 -50 0 -20 -26 -18 -39 11
-73 22 -26 30 -29 77 -27 109 5 136 15 170 59 17 22 37 46 43 51 12 10 65 153
65 177 1 36 17 42 124 44 59 1 106 -3 106 -8 0 -4 -11 -30 -25 -57 -28 -53
-45 -135 -37 -179 8 -47 73 -102 121 -102 16 0 22 -12 36 -75 10 -42 14 -87
10 -105 -6 -25 -1 -37 24 -66 45 -51 42 -83 -14 -130 -61 -50 -60 -68 3 -61
26 3 57 9 69 12 19 6 27 -2 65 -75 49 -94 50 -96 97 -165 54 -78 108 -143 198
-236 l84 -87 -7 -43 c-4 -24 -3 -40 2 -38 67 34 61 34 101 3 49 -38 173 -119
214 -140 47 -24 79 -63 79 -95 0 -36 12 -37 39 -3 l21 27 92 -35 c128 -49 305
-91 434 -104 l61 -7 11 -61 c6 -33 18 -115 27 -181 34 -254 42 -301 48 -275 3
14 5 473 4 1020 l-1 995 24 3 c23 3 83 57 91 81 2 6 41 -54 87 -133 76 -130
88 -146 145 -186 72 -50 215 -155 238 -174 9 -7 21 -15 26 -17 6 -2 55 -37
109 -77 54 -40 137 -100 184 -134 47 -33 88 -66 92 -72 4 -6 10 -8 13 -4 3 3
-8 17 -24 31 -16 13 -27 28 -23 32 4 5 2 6 -4 2 -5 -3 -78 63 -161 146 -84 84
-215 215 -292 291 -78 77 -141 140 -141 141 0 2 20 0 45 -3 50 -5 105 14 161
55 17 13 42 23 56 23 14 0 31 6 37 14 6 7 39 17 72 20 33 4 66 9 73 12 8 3 19
-11 28 -35 11 -27 26 -44 45 -52 15 -6 37 -15 48 -20 20 -8 54 -12 88 -10 9 1
25 10 34 21 10 11 22 20 28 20 6 0 26 16 45 35 39 40 60 33 60 -19 0 -43 38
-80 83 -79 105 1 233 33 252 62 3 5 16 -1 30 -13 21 -20 33 -23 90 -20 36 2
65 -1 65 -6 0 -14 -27 -111 -39 -143 -11 -27 -26 -32 -67 -21 -15 4 -20 11
-17 25 6 23 -25 38 -38 18 -7 -11 -9 -10 -9 5 0 11 7 28 17 38 15 17 15 18 -1
18 -22 0 -43 -21 -56 -54 -9 -23 -15 -26 -62 -26 -60 0 -81 -10 -73 -32 8 -21
84 -57 152 -71 66 -14 103 -32 103 -50 0 -22 -54 -141 -97 -215 -24 -41 -43
-75 -43 -78 0 -2 -19 -31 -42 -64 -63 -92 -167 -210 -184 -210 -12 0 -14 5 -9
18 25 57 16 118 -19 132 -27 10 -66 3 -66 -12 0 -5 9 -7 19 -3 40 12 70 -57
36 -85 -17 -14 -36 -5 -28 15 3 8 0 15 -6 15 -6 0 -11 -5 -11 -11 0 -6 -20 5
-45 25 -32 27 -53 36 -72 34 -50 -6 -39 -36 42 -121 41 -43 75 -85 75 -92 0
-25 -291 -235 -325 -235 -5 0 -16 -6 -24 -13 -26 -22 -227 -106 -270 -113 -37
-6 -41 -4 -46 19 -8 30 0 47 21 47 8 0 14 6 14 13 -1 14 -45 67 -57 67 -5 0
-17 24 -27 52 -21 61 -42 98 -56 98 -6 0 -10 -25 -10 -54 0 -38 -7 -68 -23
-99 -22 -40 -23 -50 -15 -112 6 -46 6 -71 -1 -78 -6 -6 -66 -18 -133 -26 -110
-14 -123 -18 -126 -36 -3 -20 1 -20 90 -14 51 4 112 12 135 17 31 7 48 6 72
-6 17 -8 31 -18 31 -23 0 -12 37 -11 45 1 3 5 15 10 25 10 19 0 45 32 34 42
-8 8 19 24 71 43 54 19 52 18 170 68 89 37 282 158 389 243 76 61 73 60 170
13 68 -34 66 -34 66 -13 0 10 -20 39 -45 65 -51 54 -54 68 -24 95 25 23 93
111 165 214 54 78 120 202 160 300 l22 55 62 1 c34 1 66 6 71 11 12 12 -27 93
-44 93 -7 0 -20 6 -29 13 -15 11 -15 20 5 107 14 58 31 105 44 120 68 78 83
101 98 153 19 64 28 72 111 80 27 3 68 9 92 13 l42 7 -26 -58 c-22 -48 -25
-66 -21 -118 4 -34 6 -63 7 -64 2 -12 88 -63 106 -63 25 0 69 40 126 114 34
44 37 46 47 27 6 -11 27 -28 46 -37 19 -9 35 -19 35 -23 0 -4 13 -22 28 -39
23 -26 38 -33 86 -38 57 -7 91 2 124 34 7 6 17 12 22 12 23 0 118 52 147 80
31 29 32 32 17 55 -8 13 -22 26 -31 29 -21 9 -62 -19 -73 -50 -12 -31 -105
-76 -170 -81 -67 -7 -81 8 -85 93 -3 69 5 95 42 132 7 7 13 20 13 28 0 8 5 14
10 14 6 0 10 6 10 14 0 25 52 131 74 148 34 28 160 24 208 -6 50 -30 115 -23
137 15 23 42 9 59 -47 59 -51 0 -114 21 -139 46 -16 15 -35 18 -103 14 -59 -3
-190 -51 -190 -70 0 -5 -22 -30 -49 -57 -27 -26 -61 -70 -76 -98 -15 -27 -31
-55 -36 -62 -11 -13 -44 -11 -44 3 1 30 19 103 31 126 26 50 15 118 -23 157
-12 12 -19 11 -46 -2 -18 -9 -51 -24 -74 -33 -24 -10 -43 -21 -43 -26 0 -4 -4
-8 -10 -8 -5 0 -42 -22 -82 -50 -106 -74 -147 -63 -98 25 19 33 19 38 5 65
-28 54 -48 56 -133 14 -100 -50 -135 -63 -201 -74 -66 -11 -78 -21 -55 -45 22
-21 96 -14 157 15 22 11 43 18 46 15 9 -10 8 -50 -2 -73 -12 -26 -52 -30 -61
-6 -10 26 -7 28 13 10 13 -12 21 -14 26 -6 3 6 1 9 -6 8 -7 -2 -13 3 -14 10 0
13 -9 14 -43 1 -34 -13 -126 -11 -141 4 -11 10 -13 10 -7 0 5 -9 -2 -13 -21
-14 -26 -1 -26 -2 7 -10 19 -4 79 -13 133 -20 l99 -12 -7 -36 c-4 -20 -9 -39
-11 -43 -5 -8 -324 -12 -324 -4 0 11 26 78 46 120 13 28 24 57 24 66 0 11 13
20 37 26 48 12 62 34 43 70 -10 19 -16 22 -18 12 -3 -17 -99 -41 -104 -26 -2
5 -32 11 -67 14 -51 4 -67 2 -83 -13 -16 -14 -22 -15 -40 -4 -11 7 -45 13 -74
13 -32 0 -54 5 -55 12 -7 99 -107 300 -217 437 -58 72 -67 89 -57 100 7 8 41
52 76 99 51 69 56 79 28 56 -19 -16 -33 -32 -32 -36 1 -4 -23 -31 -52 -60
l-55 -54 -37 35 c-124 117 -326 218 -515 258 -54 12 -100 21 -103 21 -4 0 -4
4 -1 9 3 4 -4 75 -15 157 -11 82 -21 169 -23 194 -2 25 -7 56 -10 70 -4 14 -9
48 -11 75 -3 28 -14 106 -25 175 -11 69 -23 154 -26 190 -3 36 -8 68 -10 72
-2 3 -7 33 -10 65 -4 32 -10 78 -13 103 l-7 45 -5 -60z m-3500 -1106 c63 -11
141 -44 141 -60 0 -5 -9 -13 -20 -19 -11 -6 -29 -28 -40 -50 -23 -44 -63 -70
-110 -70 -17 0 -62 -5 -101 -11 -38 -7 -71 -10 -74 -7 -2 2 -7 29 -10 59 -3
30 -10 70 -15 89 -6 19 -10 40 -10 47 0 30 122 42 239 22z m226 -9 c-3 -5 -12
-10 -18 -10 -7 0 -6 4 3 10 19 12 23 12 15 0z m3271 -15 c4 -8 2 -21 -3 -28
-10 -14 -10 -37 -1 -52 3 -5 5 -32 4 -60 l-2 -50 -63 -3 c-51 -2 -66 0 -76 15
-15 20 -4 60 15 55 7 -1 10 3 7 10 -2 7 2 25 10 41 17 34 -1 36 -23 2 -9 -14
-21 -22 -26 -19 -6 4 -8 -2 -3 -15 7 -24 -10 -29 -19 -5 -11 29 -6 43 17 47
22 4 22 4 -3 14 -40 17 -49 7 -47 -50 1 -37 -2 -52 -13 -55 -9 -3 1 -10 24
-16 45 -13 60 -36 24 -36 -12 0 -43 -7 -68 -15 -25 -8 -54 -18 -65 -22 -11 -3
-58 -26 -105 -50 -46 -24 -85 -43 -86 -43 -1 0 -4 13 -7 30 -4 16 0 44 8 64 8
20 15 38 15 41 0 8 -61 2 -66 -7 -3 -4 -11 -5 -19 -1 -11 3 -15 -2 -15 -18 0
-13 -3 -42 -6 -64 l-7 -40 22 23 c35 36 61 24 61 -27 0 -21 -85 -85 -104 -78
-13 5 -13 14 0 130 4 31 2 47 -5 47 -6 0 -11 -6 -11 -14 0 -8 -8 -13 -17 -12
-12 0 -19 -7 -21 -21 -2 -16 2 -23 13 -23 12 0 15 -5 11 -16 -4 -9 -1 -23 5
-31 19 -22 -3 -38 -30 -21 -25 15 -27 35 -6 41 11 3 10 4 -2 3 -10 -1 -24 5
-31 14 -12 13 -13 13 -9 -1 5 -14 2 -15 -19 -5 -13 6 -24 14 -24 17 0 9 89 81
158 128 119 80 306 153 431 168 25 3 64 9 86 13 63 12 85 11 91 -5z m-3750
-32 c5 -21 9 -45 10 -53 0 -8 6 -33 12 -55 18 -59 16 -62 -38 -75 -27 -7 -78
-30 -112 -52 -34 -22 -86 -52 -115 -65 -30 -14 -59 -35 -65 -47 -12 -22 -20
-29 -132 -115 -39 -30 -74 -60 -79 -67 -4 -7 -21 -23 -38 -34 l-30 -22 7 29
c9 36 86 228 112 280 12 22 48 70 82 106 87 93 280 205 356 207 17 0 24 -8 30
-37z m4144 -26 c52 -18 113 -43 135 -55 59 -30 179 -115 179 -127 1 -5 -13
-17 -31 -25 -18 -8 -31 -22 -30 -30 1 -9 -5 -14 -13 -13 -10 2 -16 -5 -16 -17
0 -11 6 -20 13 -20 7 0 13 -9 13 -19 0 -23 16 -36 25 -21 4 6 10 8 13 6 4 -2
19 4 32 15 20 15 22 19 8 19 -10 0 -18 7 -18 16 0 14 3 14 15 4 22 -18 26 -8
13 28 -16 43 -3 51 30 19 l27 -27 -71 -71 c-71 -70 -72 -71 -93 -53 -24 21
-26 31 -8 37 6 2 3 3 -8 1 -11 -2 -50 17 -90 44 -80 55 -197 110 -270 127 -43
10 -50 15 -56 42 -7 36 -5 86 6 133 7 35 7 35 -13 17 -19 -18 -20 -18 -18 0 0
10 5 21 9 24 12 9 108 -15 217 -54z m-3452 -101 c55 -35 82 -74 82 -119 l0
-39 -41 34 c-22 18 -52 39 -65 46 -27 15 -29 19 -38 70 -7 40 9 42 62 8z
m2882 14 c0 -5 -4 -10 -10 -10 -5 0 -10 5 -10 10 0 6 5 10 10 10 6 0 10 -4 10
-10z m-3050 -31 c0 -5 -13 -9 -30 -9 -32 0 -41 16 -12 22 21 5 42 -1 42 -13z
m100 -25 c0 -2 -9 0 -20 6 -11 6 -20 13 -20 16 0 2 9 0 20 -6 11 -6 20 -13 20
-16z m3126 -311 l-1 -306 -43 -15 c-28 -9 -50 -26 -65 -47 l-23 -33 -69 121
c-65 112 -81 134 -142 184 l-23 18 35 70 c19 39 35 77 35 86 0 25 -22 39 -60
39 -65 0 -130 -46 -130 -92 0 -23 -5 -23 -32 1 -13 11 -34 28 -47 39 l-24 19
54 40 c140 105 337 179 485 182 l51 1 -1 -307z m301 256 c77 -27 197 -90 257
-134 17 -13 17 -17 5 -32 -13 -17 -13 -17 4 -4 16 13 21 12 43 -10 l24 -24
-195 -195 -194 -194 -40 19 -39 20 44 75 c45 75 45 75 39 149 -3 41 -7 77 -9
80 -2 3 -7 35 -10 71 -4 36 -13 98 -20 138 -7 39 -9 72 -5 72 4 0 47 -14 96
-31z m-842 11 c8 -13 -5 -13 -25 0 -13 8 -13 10 2 10 9 0 20 -4 23 -10z
m-2706 -31 c28 -6 54 -15 57 -20 10 -16 5 -145 -7 -193 -6 -25 -20 -52 -30
-62 -10 -9 -19 -23 -19 -31 0 -8 -11 -29 -25 -47 -14 -18 -25 -40 -25 -49 0
-10 -4 -17 -10 -17 -5 0 -10 3 -10 8 0 9 -49 32 -70 32 -26 0 -95 -54 -120
-95 -12 -20 -24 -34 -26 -32 -2 2 5 44 16 93 13 61 25 94 40 106 11 9 20 20
20 26 0 5 11 30 25 56 14 26 25 52 25 58 0 5 11 23 24 39 16 19 27 48 31 84 8
62 12 64 104 44z m3916 -67 c-8 -8 -25 10 -19 20 4 6 9 5 15 -3 4 -7 6 -15 4
-17z m232 -84 c89 -120 114 -164 163 -289 44 -113 47 -131 25 -149 -12 -10
-18 -10 -30 0 -8 7 -15 19 -15 26 0 8 -5 14 -11 14 -5 0 -3 -13 7 -29 19 -33
14 -56 -14 -63 -35 -10 -46 6 -28 41 9 17 12 31 7 31 -16 0 -38 -44 -35 -71 1
-18 -5 -34 -22 -48 -13 -12 -26 -21 -29 -21 -2 0 -7 17 -11 37 -14 72 -117
142 -210 143 -40 0 -232 -47 -201 -49 5 -1 0 -16 -9 -33 -71 -136 -67 -122
-50 -173 9 -25 16 -48 16 -50 0 -3 -67 -5 -149 -5 l-148 0 -26 39 -26 39 52
30 c31 18 56 26 62 21 5 -5 19 -9 31 -9 17 0 26 9 35 35 10 27 28 43 82 75 38
22 73 40 76 40 4 0 15 13 24 30 10 16 23 35 30 42 7 7 37 48 67 91 30 43 67
94 82 113 15 19 29 40 32 47 7 17 48 -33 100 -123 40 -68 59 -109 96 -208 23
-61 20 -26 -4 44 -31 92 -74 176 -129 250 -44 60 -44 61 -26 85 l18 24 21 -21
c12 -12 24 -40 27 -63 4 -27 9 -38 14 -30 4 7 5 17 3 21 -3 4 0 8 5 8 6 0 16
-9 23 -19 6 -10 17 -17 24 -14 6 2 15 0 19 -6 14 -24 30 -10 31 29 1 40 1 41
-22 25 -13 -8 -26 -15 -30 -15 -7 0 0 64 11 99 6 18 5 22 -4 16 -9 -5 -12 -1
-11 11 4 31 0 40 -9 26 -7 -12 -12 -12 -29 -1 -20 12 -20 15 -5 31 9 10 20 18
24 18 4 0 39 -42 76 -92z m-1687 73 c0 -5 -7 -11 -15 -15 -17 -6 -21 -76 -4
-76 5 0 7 5 4 10 -3 6 -1 10 4 10 6 0 10 -10 8 -22 -3 -35 42 -53 88 -34 19 8
35 13 35 11 0 -2 -25 -37 -55 -77 -53 -71 -118 -191 -131 -242 -3 -13 -13 -31
-22 -39 -20 -17 -70 -28 -74 -15 -2 5 -28 11 -57 13 -30 3 -56 7 -59 10 -3 3
-11 0 -19 -7 -11 -8 -12 -7 -7 6 3 9 9 16 13 16 3 0 17 31 30 68 12 37 30 77
39 89 16 22 18 22 51 6 l34 -17 -34 -9 c-56 -14 -59 -28 -4 -21 28 4 52 8 54
11 3 2 -5 17 -18 33 -12 17 -17 30 -11 30 5 0 10 9 10 19 0 21 13 35 23 24 4
-3 3 -11 0 -17 -12 -18 -12 -36 -1 -36 5 0 12 9 15 21 4 16 8 17 14 7 5 -7 9
-23 9 -35 0 -13 6 -23 13 -23 9 0 12 12 9 38 -2 28 -1 33 7 22 6 -8 11 -23 11
-32 0 -10 5 -18 11 -18 7 0 8 7 4 18 -16 39 -18 55 -6 48 7 -4 20 -5 29 -1 12
5 5 10 -28 19 -35 9 -44 15 -42 29 3 15 -1 17 -17 12 -16 -5 -20 -3 -15 9 6
16 17 20 42 17 6 -1 12 3 12 9 0 16 -56 12 -70 -5 -7 -8 -14 -29 -16 -47 -4
-35 -20 -58 -40 -58 -19 0 -18 5 13 58 36 63 70 110 112 155 35 36 51 46 51
28z m88 -108 c-6 -7 -22 -13 -37 -13 -24 0 -26 3 -29 52 l-3 52 40 -39 c30
-30 37 -42 29 -52z m1497 56 c-4 -5 0 -9 7 -9 8 -1 5 -6 -7 -15 -17 -14 -20
-13 -28 0 -5 10 -4 21 3 30 13 16 34 10 25 -6z m25 -74 c0 -43 -19 -46 -42 -6
-16 30 -16 30 10 34 15 2 28 5 30 6 1 0 2 -15 2 -34z m-3944 -119 c3 -91 -2
-103 -65 -166 l-47 -45 -17 35 c-16 32 -16 35 2 55 30 33 111 204 105 223 -4
12 -2 11 7 -3 7 -11 14 -56 15 -99z m2546 37 c38 -37 68 -76 68 -86 0 -10 5
-27 10 -38 9 -15 15 -17 30 -9 16 9 39 -9 163 -130 123 -120 143 -144 139
-165 -2 -14 -8 -25 -13 -25 -10 0 -257 147 -280 167 -21 18 -134 16 -184 -3
-44 -18 -150 -43 -178 -44 -14 0 -15 3 -6 19 15 23 5 53 -16 45 -21 -9 -20 -2
24 91 51 110 141 242 166 244 5 1 40 -29 77 -66z m-2774 -151 c2 -7 -7 -12
-22 -12 -16 0 -26 6 -26 15 0 18 42 15 48 -3z m-1001 -34 c-3 -8 -6 -5 -6 6
-1 11 2 17 5 13 3 -3 4 -12 1 -19z m959 1 c3 -6 2 -15 -4 -21 -12 -12 -55 8
-47 23 8 12 42 12 51 -2z m-926 -72 c0 -5 -4 -5 -10 -2 -5 3 -10 14 -10 23 0
15 2 15 10 2 5 -8 10 -19 10 -23z m834 -42 c11 -8 27 -13 37 -10 15 5 49 -31
49 -52 0 -12 -51 -33 -81 -33 -14 0 -45 -7 -68 -15 l-41 -14 0 45 c0 73 56
115 104 79z m1055 -60 c25 -29 31 -44 31 -83 0 -27 -6 -61 -12 -76 -13 -28
-14 -28 -83 -23 -99 7 -163 25 -170 48 -8 23 30 111 60 139 29 27 104 51 126
39 9 -4 30 -24 48 -44z m2612 39 c11 -13 4 -24 -47 -75 -48 -47 -63 -57 -71
-47 -8 10 -2 29 26 75 38 65 65 79 92 47z m599 -1 c8 -10 14 -28 12 -41 -9
-60 59 -94 84 -43 11 21 12 22 18 5 16 -54 10 -94 -19 -124 -24 -25 -36 -30
-76 -30 -43 0 -49 3 -69 35 -12 19 -39 49 -60 68 -26 22 -40 44 -45 68 -6 32
-3 39 20 58 35 27 113 29 135 4z m525 -3 l26 -10 -21 -28 c-12 -15 -29 -30
-38 -34 -15 -6 -15 -7 1 -7 20 -1 21 -5 8 -29 -5 -9 -18 -39 -28 -67 -17 -45
-23 -50 -53 -53 -18 -2 -36 1 -39 7 -4 6 -8 45 -10 88 -1 43 -7 81 -13 84 -17
11 41 43 91 50 25 3 47 7 48 8 1 0 14 -4 28 -9z m-2375 -15 c0 -9 -6 -17 -12
-19 -7 -2 -29 -8 -48 -14 -19 -6 -59 -14 -89 -17 -62 -8 -66 5 -11 43 41 28
160 33 160 7z m-1040 -46 c0 -17 -8 -53 -17 -79 l-17 -49 -61 -10 c-34 -6 -65
-11 -68 -11 -4 0 -6 29 -4 65 l2 64 35 6 c19 4 51 15 70 25 51 26 60 24 60
-11z m390 11 c0 -11 -7 -36 -14 -55 -11 -26 -21 -35 -38 -35 -13 0 -40 -3 -60
-6 -31 -5 -38 -4 -38 9 0 9 17 25 38 36 20 11 51 31 67 45 37 31 45 32 45 6z
m3884 12 c3 -5 -1 -31 -9 -58 -7 -27 -19 -68 -25 -91 l-10 -42 -110 -3 c-61
-2 -110 0 -110 5 0 4 5 7 10 7 6 0 10 7 10 16 0 9 9 18 20 21 11 3 20 9 20 14
0 5 8 9 19 9 10 0 26 11 34 24 9 12 30 30 49 39 18 9 44 27 58 41 27 27 36 31
44 18z m-1029 -109 l7 -83 -47 0 c-47 0 -47 0 -33 23 8 12 18 34 21 48 9 34
37 102 42 98 1 -2 6 -41 10 -86z m-2676 -82 c2 -1 -2 -7 -8 -15 -6 -7 -13 -35
-15 -60 -2 -26 -7 -51 -12 -55 -5 -4 -30 -27 -55 -49 l-46 -42 7 43 c8 56 16
67 48 68 24 2 24 2 5 6 -29 6 -29 15 2 67 23 40 35 46 74 37z m345 -60 c-51
-93 -96 -145 -155 -179 -58 -33 -89 -32 -89 4 0 13 4 24 9 24 8 0 33 59 36 85
2 14 15 47 26 65 5 8 14 26 19 40 10 24 14 25 100 26 l90 0 -36 -65z m284 18
c2 -24 6 -47 10 -51 4 -4 6 17 4 46 l-4 53 97 1 c53 1 101 0 106 -4 10 -6 -57
-135 -98 -190 -18 -25 -21 -36 -14 -60 16 -55 51 -82 120 -93 72 -12 131 4
166 45 35 40 97 77 106 63 5 -8 -3 -18 -22 -28 -16 -9 -70 -72 -120 -141 -202
-278 -203 -280 -313 -435 -37 -53 -82 -112 -98 -131 -17 -19 -26 -34 -20 -34
6 0 21 13 35 29 14 17 28 27 32 23 5 -4 5 -2 2 4 -3 6 23 39 59 75 59 58 66
62 78 47 9 -13 16 -14 24 -6 8 8 7 14 -6 24 -15 11 10 39 218 248 l235 236 48
-9 c26 -5 50 -11 53 -14 3 -2 -11 -30 -29 -62 -19 -31 -33 -64 -31 -73 2 -9
10 -73 19 -142 9 -69 20 -150 25 -180 6 -30 14 -95 20 -145 5 -49 18 -151 29
-225 11 -74 26 -172 32 -218 11 -74 11 -85 -4 -99 -9 -10 -29 -17 -44 -18 -18
0 -29 -6 -31 -17 -3 -14 3 -18 22 -18 37 0 32 -13 -21 -59 -37 -32 -44 -41
-28 -41 30 0 84 37 103 70 9 16 20 30 23 30 3 0 6 -21 8 -47 1 -27 6 -66 11
-88 5 -22 8 -41 6 -42 -4 -4 -178 23 -241 37 -61 13 -220 64 -281 90 -49 22
-52 29 -29 104 25 83 -2 84 -49 4 -15 -27 -34 -48 -41 -48 -14 0 -126 58 -135
70 -3 4 -15 12 -28 19 -43 23 -132 94 -132 105 0 18 62 74 85 76 35 4 44 0 39
-15 -4 -9 1 -18 11 -22 17 -6 17 -7 -1 -20 -24 -18 -54 -17 -54 2 0 8 -7 15
-15 15 -20 0 -19 -34 0 -50 12 -10 24 -10 53 -2 29 9 42 21 61 56 21 41 22 66
1 66 -5 0 -10 -7 -12 -15 -2 -10 -8 -12 -17 -5 -12 7 -12 11 -2 24 8 10 9 16
3 16 -6 0 -14 -5 -17 -10 -3 -5 -15 -10 -26 -10 -18 0 -17 4 11 44 36 53 36
56 8 56 -14 0 -49 -29 -100 -81 -58 -60 -83 -79 -97 -74 -29 9 -186 180 -244
266 -41 61 -132 213 -145 242 -19 43 -15 51 33 86 32 23 51 30 68 26 22 -6 24
-4 24 38 1 51 -4 52 -86 15 -36 -16 -46 -17 -53 -6 -7 10 -10 9 -19 -4 -5 -10
-14 -18 -18 -18 -12 0 -34 57 -27 68 10 17 46 21 46 6 0 -19 26 -18 34 2 4 9
13 13 23 10 22 -7 103 74 103 102 0 34 -112 47 -135 15 -8 -11 -18 -14 -31 -9
-18 7 -18 8 -1 20 25 19 21 36 -8 36 -27 0 -42 -33 -30 -68 7 -25 -12 -39 -30
-21 -18 19 -55 172 -45 183 5 4 19 -1 31 -13 25 -23 60 -27 88 -9 15 9 25 9
46 0 40 -18 99 -15 128 8 14 11 29 20 34 20 5 0 25 16 43 35 32 33 36 34 47
18 7 -9 13 -29 13 -43 0 -42 43 -75 96 -74 37 1 51 8 92 45 51 46 76 84 67
100 -5 8 17 6 78 -6 9 -2 17 -2 17 -2 -1 1 -7 27 -15 57 l-15 55 6 -47 c5 -44
3 -48 -15 -48 -14 0 -21 6 -21 20 0 11 -4 20 -10 20 -5 0 -7 -7 -4 -15 9 -23
-20 -18 -42 7 -19 21 -19 21 4 15 22 -5 23 -4 8 12 -9 10 -16 22 -16 28 0 6
-10 18 -22 27 -16 12 -19 18 -10 22 6 3 12 10 12 15 0 6 8 21 18 34 12 16 26
22 47 21 28 -2 30 -5 33 -47z m766 45 c9 -4 23 -19 31 -35 l15 -28 -57 -34
c-55 -32 -58 -33 -61 -13 -9 64 -50 106 -102 106 -27 0 -60 -17 -60 -31 0 -17
-53 -119 -62 -119 -4 0 -18 -12 -30 -26 -28 -31 -77 -62 -118 -74 -26 -8 -30
-6 -30 12 0 31 40 158 49 158 5 0 17 20 27 44 l19 45 181 1 c100 0 189 -2 198
-6z m2462 -84 c-1 -54 -4 -70 -16 -70 -8 0 -31 -17 -52 -37 -21 -20 -40 -34
-44 -31 -9 9 34 127 62 171 38 58 51 49 50 -33z m-2373 2 c6 -9 -97 -182 -115
-193 -15 -10 -59 -12 -81 -4 -9 4 16 37 82 105 96 99 106 107 114 92z m-4395
-28 c39 -3 72 -10 72 -13 0 -15 -25 -31 -47 -31 -13 0 -40 -15 -60 -34 -21
-18 -54 -41 -73 -51 -19 -10 -38 -23 -42 -29 -5 -8 -8 -7 -8 2 0 6 -5 12 -11
12 -5 0 -7 -5 -4 -10 3 -6 0 -13 -8 -16 -20 -7 -34 -43 -51 -127 -13 -61 -13
-73 2 -112 17 -48 8 -44 142 -60 51 -6 98 -20 120 -36 14 -9 42 -20 62 -23 52
-9 55 -22 11 -49 -92 -58 -314 -103 -329 -68 -5 13 -8 12 -15 -6 -15 -39 -55
-30 -108 25 -89 94 -105 117 -115 174 -17 94 44 214 168 327 49 44 92 81 96
81 4 0 25 14 46 31 24 19 46 28 59 25 11 -2 53 -8 93 -12z m3427 4 c29 -13 32
-34 8 -60 -28 -31 -43 -22 -43 27 0 50 -1 49 35 33z m1208 5 c2 -5 -1 -21 -8
-36 -11 -28 -11 -28 -30 -8 -14 17 -15 23 -5 36 13 16 36 20 43 8z m1467 -13
c0 -5 7 -10 15 -10 33 0 -1 -101 -39 -114 -37 -14 -44 0 -13 25 15 11 27 27
27 34 0 8 -15 -1 -33 -20 -31 -32 -35 -33 -53 -20 -18 15 -18 16 11 40 18 15
24 25 15 25 -17 -1 -70 -44 -70 -58 0 -6 -13 -24 -29 -41 -26 -28 -35 -31 -85
-31 -63 0 -104 27 -91 58 4 9 10 30 14 47 6 27 12 31 56 38 28 4 75 10 105 12
30 2 73 9 95 14 56 12 75 13 75 1z m-1947 -44 c4 -9 -6 -22 -26 -35 -26 -16
-33 -18 -35 -6 -9 39 48 76 61 41z m-2887 -74 c13 -30 13 -35 -16 -91 -16 -33
-34 -63 -40 -66 -16 -10 -60 42 -60 70 0 13 4 26 9 29 5 3 19 35 32 71 l23 66
19 -23 c10 -13 25 -38 33 -56z m3475 68 c6 0 15 -14 21 -31 9 -26 15 -30 36
-26 17 3 39 -4 65 -21 38 -25 38 -27 17 -36 -29 -13 -146 7 -171 30 -29 26
-22 101 8 90 8 -3 19 -6 24 -6z m-1271 -34 c0 -6 -5 -3 -11 7 -6 9 -15 14 -21
11 -7 -4 -8 -2 -4 5 9 14 36 -3 36 -23z m2085 3 c-3 -8 -31 -29 -63 -46 -60
-33 -92 -31 -92 6 0 23 32 39 100 49 63 9 62 10 55 -9z m-2111 -8 c9 -14 -63
-56 -76 -43 -18 18 9 52 42 52 16 0 31 -4 34 -9z m-3352 -37 c7 -9 23 -27 36
-40 29 -33 28 -40 -8 -53 -16 -5 -30 -15 -30 -21 0 -8 10 -9 30 -5 22 5 30 3
30 -7 0 -15 -50 -68 -64 -68 -5 0 -21 -11 -38 -25 -16 -14 -36 -25 -44 -25 -8
0 -14 -4 -14 -10 0 -16 -18 -12 -40 10 -33 33 -24 49 40 75 26 11 54 55 42 67
-13 13 -43 -4 -82 -46 -31 -32 -40 -33 -40 -3 0 24 42 90 73 116 15 12 17 11
15 -10 -2 -16 3 -24 17 -27 17 -4 18 -3 5 14 -14 16 -13 17 3 11 19 -7 21 0 7
23 -20 33 37 55 62 24z m2801 -56 c-7 -12 -16 -9 -42 13 -23 19 -23 20 -5 40
18 20 18 20 35 -13 9 -18 15 -36 12 -40z m-3057 -37 c-26 -49 -15 -117 26
-170 24 -31 17 -36 -21 -17 -36 19 -44 42 -38 111 4 48 33 122 43 112 3 -3 -2
-19 -10 -36z m1504 -36 c7 -14 19 -25 26 -25 7 0 36 -48 65 -106 33 -66 62
-112 78 -122 61 -37 71 -53 65 -96 -5 -37 -4 -39 9 -23 17 20 27 22 27 5 0 -7
27 -40 60 -72 33 -33 60 -62 60 -65 0 -3 -80 -46 -178 -96 -97 -49 -206 -111
-241 -137 -35 -27 -69 -48 -75 -48 -37 1 -83 75 -131 209 -40 110 -55 176 -55
239 0 32 -4 62 -10 68 -16 16 9 147 33 178 l22 27 27 -26 c32 -30 38 -31 31
-6 -3 11 2 21 11 24 9 4 16 2 16 -2 0 -5 -4 -11 -9 -13 -4 -1 -6 -11 -2 -20 5
-14 20 -3 76 56 39 40 73 74 76 75 3 0 12 -10 19 -24z m500 -310 c0 -8 4 -15
9 -15 13 0 87 -62 112 -93 30 -39 13 -56 -30 -31 -29 17 -49 42 -94 116 -20
32 -21 38 -7 38 6 0 10 -7 10 -15z m650 -177 c114 -35 135 -48 138 -90 3 -32
-1 -39 -25 -52 -42 -22 -91 -69 -95 -90 -1 -10 -16 -28 -31 -40 -63 -46 -287
-11 -349 56 -22 24 -28 40 -28 75 0 24 -7 58 -16 75 -20 38 -12 45 66 54 30 3
82 14 115 24 69 22 126 19 225 -12z m-1420 -91 c0 -18 -2 -19 -10 -7 -13 20
-13 43 0 35 6 -3 10 -16 10 -28z m826 -58 c10 -12 37 -31 59 -42 29 -15 35
-22 23 -25 -10 -2 -18 -7 -18 -12 0 -4 10 -6 21 -3 19 5 20 3 14 -18 -22 -71
-55 -123 -55 -85 0 8 5 18 10 21 19 12 10 33 -15 33 -21 0 -25 -5 -25 -28 0
-32 -41 -78 -79 -87 -14 -3 -43 -14 -63 -24 -41 -21 -68 -24 -68 -9 0 6 6 10
14 10 19 0 31 19 19 31 -6 6 -16 2 -28 -11 -10 -11 -26 -20 -35 -20 -10 0 -34
-7 -55 -16 -47 -19 -53 -13 -21 19 24 24 34 47 21 47 -3 0 -19 -13 -34 -29
-44 -45 -85 -48 -153 -13 -31 16 -60 26 -65 21 -5 -5 -19 -6 -32 -2 -17 4 -19
8 -9 14 7 5 22 9 34 9 11 0 29 9 38 19 10 11 31 23 48 26 16 4 44 19 61 35 35
30 93 61 148 79 20 6 65 27 100 46 74 40 118 44 145 14z"/>
<path d="M5120 3461 c0 -11 -4 -23 -10 -26 -5 -3 -10 -15 -10 -26 0 -15 7 -19
35 -19 40 0 39 -1 23 51 -12 40 -38 54 -38 20z m17 -13 c-3 -8 -6 -5 -6 6 -1
11 2 17 5 13 3 -3 4 -12 1 -19z"/>
<path d="M4870 3419 c0 -5 4 -8 9 -5 5 3 14 0 20 -8 9 -11 8 -18 -4 -30 -9 -9
-15 -24 -13 -33 3 -15 4 -15 20 0 9 9 20 17 25 17 13 0 13 54 0 62 -18 11 -57
9 -57 -3z"/>
<path d="M4850 3349 c11 -38 26 -55 17 -19 -4 14 -7 31 -7 38 0 6 -4 12 -9 12
-6 0 -6 -12 -1 -31z"/>
<path d="M4773 3363 c23 -6 22 -18 -5 -53 -17 -23 -19 -33 -10 -42 9 -9 12 -7
12 9 0 18 7 22 41 25 l42 3 -31 33 c-16 17 -38 31 -49 31 -16 -1 -16 -2 0 -6z"/>
<path d="M4727 3354 c-15 -16 -6 -34 18 -34 14 0 25 5 25 10 0 6 -6 10 -14 10
-8 0 -16 5 -18 11 -2 5 -7 7 -11 3z"/>
<path d="M5458 3427 c11 -13 11 -20 1 -39 -11 -21 -11 -22 5 -9 20 17 18 52
-4 59 -13 4 -13 3 -2 -11z"/>
<path d="M5556 3423 c-4 -5 -18 -8 -29 -8 -27 0 -57 -55 -57 -104 0 -26 3 -32
16 -27 9 3 29 6 45 6 16 0 29 5 29 10 0 6 -7 10 -15 10 -21 0 -19 6 16 50 19
23 29 45 26 54 -7 17 -19 20 -31 9z m-44 -78 c-2 -14 -8 -25 -12 -25 -4 0 -5
11 -2 25 2 14 8 25 12 25 4 0 5 -11 2 -25z"/>
<path d="M5423 3390 c0 -16 4 -27 9 -24 4 3 8 16 8 30 0 13 -4 24 -8 24 -5 0
-9 -13 -9 -30z"/>
<path d="M5609 3363 c-11 -13 -11 -17 -1 -20 6 -3 12 -11 12 -19 0 -9 4 -13 9
-9 6 3 14 -2 19 -10 9 -17 42 -11 42 8 0 5 9 2 20 -8 11 -10 20 -24 20 -32 0
-7 5 -13 10 -13 28 0 -15 70 -43 70 -7 0 -4 7 6 15 18 13 18 14 0 22 -32 16
-80 14 -94 -4z"/>
<path d="M5747 3324 c-3 -3 -2 -14 3 -23 4 -9 13 -29 20 -45 8 -20 14 -26 19
-18 4 8 15 10 26 6 14 -6 17 -4 12 8 -3 10 1 19 10 22 14 6 14 8 -3 21 -10 8
-28 15 -39 15 -12 0 -26 5 -31 10 -6 6 -13 8 -17 4z"/>
<path d="M5686 3271 c-3 -5 1 -14 8 -20 12 -10 13 -8 9 8 -6 23 -9 25 -17 12z"/>
<path d="M5651 3234 c0 -11 3 -14 6 -6 3 7 2 16 -1 19 -3 4 -6 -2 -5 -13z"/>
<path d="M4961 3164 c0 -11 3 -14 6 -6 3 7 2 16 -1 19 -3 4 -6 -2 -5 -13z"/>
<path d="M4952 3090 c0 -14 2 -19 5 -12 2 6 2 18 0 25 -3 6 -5 1 -5 -13z"/>
<path d="M4942 3020 c0 -14 2 -19 5 -12 2 6 2 18 0 25 -3 6 -5 1 -5 -13z"/>
<path d="M4931 2944 c0 -11 3 -14 6 -6 3 7 2 16 -1 19 -3 4 -6 -2 -5 -13z"/>
<path d="M5629 2973 c-13 -16 -12 -17 4 -4 16 13 21 21 13 21 -2 0 -10 -8 -17
-17z"/>
<path d="M5509 2883 c-13 -16 -12 -17 4 -4 9 7 17 15 17 17 0 8 -8 3 -21 -13z"/>
<path d="M6120 2883 c0 -12 -3 -29 -6 -37 -5 -12 -2 -15 10 -10 18 7 21 31 6
54 -8 12 -10 11 -10 -7z"/>
<path d="M6130 2821 c-50 -41 -34 -45 19 -5 24 19 37 34 29 34 -7 0 -29 -13
-48 -29z"/>
<path d="M6124 2776 c-3 -8 -4 -23 -1 -33 3 -12 5 -9 6 9 1 16 8 28 19 31 16
4 16 5 -1 6 -10 0 -20 -5 -23 -13z"/>
<path d="M6165 2760 c-30 -8 -30 -8 8 -9 47 -1 48 -18 2 -27 -28 -5 -35 -11
-35 -30 0 -13 5 -24 10 -24 6 0 10 9 10 21 0 11 4 17 10 14 6 -4 19 -1 28 6
14 11 15 11 5 -1 -7 -8 -13 -23 -12 -34 0 -20 1 -20 9 2 5 12 14 22 20 22 6 0
15 12 21 27 15 40 -8 50 -76 33z"/>
<path d="M4170 2747 c0 -12 33 -67 40 -67 4 0 15 7 26 16 18 15 18 15 -4 11
-17 -4 -22 -1 -20 11 2 10 -3 16 -11 14 -8 -2 -18 3 -22 10 -5 7 -9 9 -9 5z"/>
<path d="M4267 2693 c-4 -3 -7 -11 -7 -17 0 -6 5 -5 12 2 6 6 9 14 7 17 -3 3
-9 2 -12 -2z"/>
<path d="M4530 2906 c0 -2 8 -10 18 -17 15 -13 16 -12 3 4 -13 16 -21 21 -21
13z"/>
<path d="M4080 2590 c0 -5 5 -10 10 -10 6 0 10 5 10 10 0 6 -4 10 -10 10 -5 0
-10 -4 -10 -10z"/>
<path d="M7238 2423 c6 -2 18 -2 25 0 6 3 1 5 -13 5 -14 0 -19 -2 -12 -5z"/>
<path d="M7298 2413 c7 -3 16 -2 19 1 4 3 -2 6 -13 5 -11 0 -14 -3 -6 -6z"/>
<path d="M3853 2233 c9 -2 23 -2 30 0 6 3 -1 5 -18 5 -16 0 -22 -2 -12 -5z"/>
<path d="M4348 2163 c7 -3 16 -2 19 1 4 3 -2 6 -13 5 -11 0 -14 -3 -6 -6z"/>
<path d="M4837 1864 c-26 -20 -47 -39 -47 -41 0 -6 90 59 96 69 9 15 -3 8 -49
-28z"/>
<path d="M4719 1773 c-13 -16 -12 -17 4 -4 16 13 21 21 13 21 -2 0 -10 -8 -17
-17z"/>
<path d="M4669 1733 c-13 -16 -12 -17 4 -4 16 13 21 21 13 21 -2 0 -10 -8 -17
-17z"/>
<path d="M3767 1684 c-11 -11 3 -24 25 -24 12 0 30 -7 40 -17 17 -15 18 -15
18 1 0 10 -14 23 -35 32 -39 16 -40 16 -48 8z"/>
<path d="M4523 1668 c-11 -13 -18 -29 -15 -37 3 -9 0 -11 -8 -6 -9 5 -11 4 -6
-3 4 -7 3 -12 -3 -12 -6 0 -15 -10 -22 -21 -9 -18 -6 -17 25 7 23 18 32 32 26
38 -6 6 -2 18 12 33 12 13 19 23 16 23 -2 0 -14 -10 -25 -22z"/>
<path d="M3756 1615 c6 -16 54 -21 54 -6 0 5 -10 11 -22 15 -34 9 -38 7 -32
-9z"/>
<path d="M3810 1499 c0 -45 4 -55 34 -85 19 -19 41 -34 50 -34 22 0 21 1 -24
49 -29 30 -40 50 -40 72 0 28 2 30 28 24 20 -4 33 -1 42 10 11 13 6 15 -39 15
l-51 0 0 -51z"/>
<path d="M4349 1493 c-13 -16 -12 -17 4 -4 16 13 21 21 13 21 -2 0 -10 -8 -17
-17z"/>
<path d="M4309 1463 c-13 -16 -12 -17 4 -4 16 13 21 21 13 21 -2 0 -10 -8 -17
-17z"/>
<path d="M3975 1378 c-2 -7 -6 -30 -10 -50 -5 -30 -3 -38 10 -38 9 0 15 9 15
21 0 27 23 19 30 -11 3 -13 12 -26 19 -28 22 -7 3 80 -22 100 -26 21 -36 22
-42 6z"/>
<path d="M4120 1301 c0 -5 7 -11 15 -15 18 -7 14 -39 -10 -86 -20 -39 -10 -54
15 -22 10 12 25 22 33 22 10 0 16 13 19 39 3 34 0 42 -23 55 -30 18 -49 21
-49 7z"/>
<path d="M4396 1041 c-3 -21 -13 -44 -21 -51 -23 -19 -18 -30 13 -30 15 0 38
-7 51 -16 27 -20 52 -5 32 20 -9 11 -8 17 4 29 8 9 15 25 15 37 0 17 4 20 21
15 18 -6 19 -5 7 14 -7 12 -18 21 -24 21 -12 0 -46 -35 -62 -65 -10 -18 -11
-16 -12 17 0 50 -16 56 -24 9z"/>
<path d="M4647 983 c-4 -3 -7 -16 -7 -27 0 -17 -6 -21 -32 -21 -28 0 -33 -4
-36 -27 -3 -22 2 -29 21 -33 19 -5 23 -11 19 -36 -6 -43 25 -39 44 6 22 53 15
163 -9 138z"/>
<path d="M4850 885 c-19 -7 -50 -14 -67 -14 -20 -1 -33 -6 -33 -14 0 -12 118
-77 140 -77 17 0 11 25 -10 38 -27 17 -25 31 6 42 14 6 24 15 22 22 -6 17 -19
18 -58 3z"/>
<path d="M5161 4564 c0 -11 3 -14 6 -6 3 7 2 16 -1 19 -3 4 -6 -2 -5 -13z"/>
<path d="M5141 4424 c0 -11 3 -14 6 -6 3 7 2 16 -1 19 -3 4 -6 -2 -5 -13z"/>
<path d="M5121 4274 c0 -11 3 -14 6 -6 3 7 2 16 -1 19 -3 4 -6 -2 -5 -13z"/>
<path d="M5112 4205 c0 -16 2 -22 5 -12 2 9 2 23 0 30 -3 6 -5 -1 -5 -18z"/>
<path d="M5102 4140 c0 -14 2 -19 5 -12 2 6 2 18 0 25 -3 6 -5 1 -5 -13z"/>
<path d="M5087 4070 c-3 -11 -1 -20 4 -20 5 0 9 9 9 20 0 11 -2 20 -4 20 -2 0
-6 -9 -9 -20z"/>
<path d="M5081 3994 c0 -11 3 -14 6 -6 3 7 2 16 -1 19 -3 4 -6 -2 -5 -13z"/>
<path d="M5071 3928 c0 -9 -4 -25 -7 -35 -5 -17 -5 -17 6 0 6 10 9 25 7 35 -4
15 -5 15 -6 0z"/>
<path d="M5061 3844 c0 -11 3 -14 6 -6 3 7 2 16 -1 19 -3 4 -6 -2 -5 -13z"/>
<path d="M5051 3794 c0 -11 3 -14 6 -6 3 7 2 16 -1 19 -3 4 -6 -2 -5 -13z"/>
<path d="M5042 3720 c0 -14 2 -19 5 -12 2 6 2 18 0 25 -3 6 -5 1 -5 -13z"/>
<path d="M1185 3660 c-33 -4 -69 -11 -80 -17 -11 -6 -47 -23 -80 -38 -74 -33
-158 -96 -146 -108 5 -5 19 1 33 15 71 66 199 124 303 137 28 3 46 8 40 12 -5
3 -37 2 -70 -1z"/>
<path d="M805 3443 c-25 -27 -55 -66 -66 -88 -11 -22 -24 -47 -29 -55 -18 -33
-80 -172 -80 -181 0 -5 -8 -26 -19 -47 -32 -65 -25 -357 10 -396 4 -5 6 47 3
115 -6 156 17 308 59 384 8 17 27 55 41 85 13 31 35 67 48 80 13 14 39 49 57
78 18 28 37 52 42 52 5 0 9 5 9 10 0 23 -32 7 -75 -37z"/>
<path d="M6039 3283 c-13 -16 -12 -17 4 -4 16 13 21 21 13 21 -2 0 -10 -8 -17
-17z"/>
<path d="M4250 3276 c0 -2 8 -10 18 -17 15 -13 16 -12 3 4 -13 16 -21 21 -21
13z"/>
<path d="M4295 3220 c10 -11 20 -20 23 -20 3 0 -3 9 -13 20 -10 11 -20 20 -23
20 -3 0 3 -9 13 -20z"/>
<path d="M1480 3027 c0 -10 -5 -14 -15 -11 -8 4 -15 2 -15 -4 0 -6 -2 -17 -5
-24 -3 -9 2 -14 14 -15 14 -1 22 7 26 28 4 17 4 33 1 36 -3 4 -6 -1 -6 -10z"/>
<path d="M1387 2860 c-25 -49 -44 -90 -42 -90 2 0 25 36 51 80 25 44 50 78 55
75 5 -4 6 1 3 9 -3 9 -9 16 -13 16 -4 0 -28 -40 -54 -90z"/>
<path d="M6781 2904 c0 -11 3 -14 6 -6 3 7 2 16 -1 19 -3 4 -6 -2 -5 -13z"/>
<path d="M6759 2868 c-3 -22 -1 -34 4 -29 5 5 7 21 5 37 -3 27 -4 26 -9 -8z"/>
<path d="M6841 2870 c-1 -8 6 -33 14 -55 8 -22 14 -33 14 -25 1 8 -6 33 -14
55 -8 22 -14 33 -14 25z"/>
<path d="M6868 2855 c2 -14 8 -27 12 -30 4 -2 5 7 2 20 -2 14 -8 27 -12 30 -4
2 -5 -7 -2 -20z"/>
<path d="M3581 2839 c-6 -18 -9 -34 -7 -36 2 -2 9 10 15 28 6 18 9 34 7 36 -2
2 -9 -10 -15 -28z"/>
<path d="M3757 2843 c-4 -3 -7 -11 -7 -17 0 -6 5 -5 12 2 6 6 9 14 7 17 -3 3
-9 2 -12 -2z"/>
<path d="M3549 2833 c0 -5 -2 -16 -4 -25 -2 -10 0 -20 4 -22 3 -2 7 9 7 25 1
16 0 29 -2 29 -2 0 -4 -3 -5 -7z"/>
<path d="M3446 2782 c-2 -4 11 -6 30 -4 19 2 34 6 34 8 0 8 -59 4 -64 -4z"/>
<path d="M6919 2768 c-1 -7 -1 -19 0 -27 2 -7 -1 -11 -6 -8 -4 3 -9 -7 -10
-21 -1 -15 -4 -38 -5 -51 -2 -16 2 -25 15 -26 13 -3 17 4 17 24 0 15 -4 31
-10 37 -6 6 -1 19 14 37 14 16 27 28 30 28 34 -4 32 7 -2 14 -12 2 -21 -1 -19
-7 1 -6 -4 -13 -11 -15 -8 -3 -10 1 -6 11 3 9 3 16 0 16 -3 0 -7 -6 -7 -12z"/>
<path d="M1317 2731 c-9 -15 -39 -49 -66 -75 -28 -26 -51 -49 -51 -52 0 -15
63 32 97 73 49 60 55 70 45 77 -5 3 -16 -7 -25 -23z"/>
<path d="M3605 2731 c1 -14 6 -25 12 -24 6 1 18 -15 27 -36 16 -34 22 -38 56
-39 28 -1 42 3 49 16 22 41 4 65 -66 87 -80 26 -80 26 -78 -4z m45 -1 c0 -5 7
-7 15 -4 8 4 15 1 15 -5 0 -6 7 -8 15 -5 8 4 15 1 15 -6 0 -6 4 -9 9 -5 10 6
24 -11 27 -33 1 -6 -3 -9 -9 -5 -6 4 -8 0 -5 -9 4 -8 1 -15 -7 -15 -7 0 -11 7
-9 16 4 14 3 13 -7 -1 -12 -15 -14 -15 -27 0 -12 16 -13 15 -7 -3 4 -13 3 -17
-4 -10 -5 6 -11 17 -13 25 -2 8 -9 21 -16 28 -7 8 -9 19 -5 25 5 8 2 8 -8 0
-13 -10 -16 -10 -16 2 0 8 9 15 19 15 10 0 18 -4 18 -10z"/>
<path d="M3654 2701 c9 -10 13 -21 9 -26 -5 -4 -3 -5 4 -1 6 3 14 2 18 -4 4
-6 12 -7 18 -3 7 4 15 8 20 8 11 0 9 20 -3 21 -5 1 -12 3 -15 4 -3 1 -9 4 -15
5 -5 1 -11 3 -12 5 -2 1 -11 3 -21 5 -17 3 -17 2 -3 -14z m39 -6 c4 0 7 -4 8
-8 2 -18 -9 -16 -27 5 -11 13 -13 18 -4 12 8 -5 18 -9 23 -9z"/>
<path d="M6692 2727 c-32 -33 -43 -69 -20 -64 18 3 37 29 38 49 0 9 5 18 12
20 6 2 9 10 7 16 -3 8 -16 0 -37 -21z m-6 -35 c-17 -16 -18 -16 -5 5 7 12 15
20 18 17 3 -2 -3 -12 -13 -22z"/>
<path d="M6832 2670 c0 -14 2 -19 5 -12 2 6 2 18 0 25 -3 6 -5 1 -5 -13z"/>
<path d="M8385 2679 c-11 -4 -33 -10 -49 -14 -16 -3 -54 -31 -86 -63 -59 -59
-67 -77 -76 -177 -3 -27 -9 -59 -14 -70 -48 -111 -40 -190 27 -265 68 -75 127
-87 258 -50 44 12 87 26 96 31 27 14 112 146 106 163 -9 24 -26 19 -61 -17
-64 -68 -116 -100 -173 -108 -67 -9 -77 -6 -103 36 -29 47 -22 185 10 205 6 4
36 3 67 -2 30 -5 105 -7 166 -6 l111 3 24 35 c21 31 22 42 17 105 -8 98 -28
133 -95 169 -45 24 -68 30 -130 31 -41 1 -84 -2 -95 -6z m135 -75 c23 -15 44
-38 47 -53 10 -36 10 -128 0 -138 -5 -4 -58 -8 -119 -8 -155 1 -162 13 -91
162 15 31 66 61 106 62 9 1 35 -11 57 -25z"/>
<path d="M6781 2618 c-9 -15 -8 -18 7 -18 9 0 22 8 28 18 9 14 8 18 -6 18 -10
0 -23 -8 -29 -18z"/>
<path d="M3691 2610 c-1 -3 -4 -23 -6 -44 -3 -27 -1 -36 6 -29 6 6 9 26 6 44
-2 19 -5 32 -6 29z"/>
<path d="M894 2576 c-9 -24 3 -46 25 -46 14 0 18 5 14 20 -8 30 -31 46 -39 26z"/>
<path d="M6936 2535 c4 -8 11 -15 16 -15 6 0 5 6 -2 15 -7 8 -14 15 -16 15 -2
0 -1 -7 2 -15z"/>
<path d="M1036 2509 c-22 -21 -19 -23 18 -9 14 5 26 14 26 20 0 16 -23 11 -44
-11z"/>
<path d="M3223 2323 c9 -2 23 -2 30 0 6 3 -1 5 -18 5 -16 0 -22 -2 -12 -5z"/>
<path d="M3293 2313 c9 -2 23 -2 30 0 6 3 -1 5 -18 5 -16 0 -22 -2 -12 -5z"/>
<path d="M5700 2046 c0 -2 8 -10 18 -17 15 -13 16 -12 3 4 -13 16 -21 21 -21
13z"/>
<path d="M5790 1926 c0 -2 8 -10 18 -17 15 -13 16 -12 3 4 -13 16 -21 21 -21
13z"/>
<path d="M5862 1833 c32 -48 88 -111 72 -83 -13 23 -96 130 -101 130 -2 0 11
-21 29 -47z"/>
<path d="M5441 1824 c0 -11 3 -14 6 -6 3 7 2 16 -1 19 -3 4 -6 -2 -5 -13z"/>
<path d="M5431 1754 c0 -11 3 -14 6 -6 3 7 2 16 -1 19 -3 4 -6 -2 -5 -13z"/>
<path d="M6667 1764 c-11 -11 -8 -123 3 -145 19 -34 27 -21 27 44 1 34 3 71 4
82 4 19 -20 33 -34 19z"/>
<path d="M6570 1738 c0 -7 12 -24 26 -39 15 -16 27 -41 29 -61 3 -44 19 -42
23 4 2 25 -4 48 -20 72 -22 34 -58 49 -58 24z"/>
<path d="M6635 1740 c-3 -5 -1 -10 4 -10 6 0 11 5 11 10 0 6 -2 10 -4 10 -3 0
-8 -4 -11 -10z"/>
<path d="M5950 1716 c0 -2 7 -9 15 -16 13 -11 14 -10 9 4 -5 14 -24 23 -24 12z"/>
<path d="M5422 1680 c0 -14 2 -19 5 -12 2 6 2 18 0 25 -3 6 -5 1 -5 -13z"/>
<path d="M6000 1650 c6 -11 13 -20 16 -20 2 0 0 9 -6 20 -6 11 -13 20 -16 20
-2 0 0 -9 6 -20z"/>
<path d="M6030 1612 c0 -5 10 -17 22 -28 l21 -19 -18 28 c-18 28 -25 33 -25
19z"/>
<path d="M5395 1515 c-3 -26 -4 -49 -2 -52 3 -3 9 16 12 42 4 25 5 48 2 51 -2
3 -8 -16 -12 -41z"/>
<path d="M6505 1540 c-17 -19 -17 -21 0 -40 17 -18 16 -20 -11 -44 -37 -32
-25 -45 16 -16 25 18 34 19 45 10 8 -7 15 -21 15 -31 0 -11 5 -19 10 -19 13 0
13 36 0 61 -8 15 -7 19 3 19 8 0 17 9 20 20 4 14 0 20 -13 20 -9 0 -29 9 -42
20 -25 19 -26 19 -43 0z"/>
<path d="M6560 1550 c0 -5 5 -10 11 -10 5 0 7 5 4 10 -3 6 -8 10 -11 10 -2 0
-4 -4 -4 -10z"/>
<path d="M5205 1480 c-3 -6 1 -7 9 -4 18 7 21 14 7 14 -6 0 -13 -4 -16 -10z"/>
<path d="M5258 1483 c6 -2 18 -2 25 0 6 3 1 5 -13 5 -14 0 -19 -2 -12 -5z"/>
<path d="M5373 1445 c7 -14 16 -25 20 -25 9 0 -9 36 -22 44 -5 4 -4 -5 2 -19z"/>
<path d="M5200 1436 c0 -8 4 -17 9 -20 5 -4 7 3 4 14 -6 23 -13 26 -13 6z"/>
<path d="M6510 1410 c0 -5 5 -10 10 -10 6 0 10 5 10 10 0 6 -4 10 -10 10 -5 0
-10 -4 -10 -10z"/>
<path d="M5342 1381 c1 -16 5 -28 9 -26 6 5 0 55 -7 55 -3 0 -3 -13 -2 -29z"/>
<path d="M5376 1395 c-3 -9 -6 -28 -6 -41 0 -21 -4 -24 -20 -19 -13 4 -20 2
-20 -6 0 -7 3 -9 6 -6 4 3 14 2 24 -3 15 -8 18 -3 23 38 6 50 3 63 -7 37z"/>
<path d="M5246 1335 c-9 -26 -7 -32 5 -12 6 10 9 21 6 23 -2 3 -7 -2 -11 -11z"/>
<path d="M5282 1314 c-7 -8 -8 -14 -3 -14 10 0 25 19 20 25 -2 1 -10 -3 -17
-11z"/>
<path d="M5208 1313 c7 -3 16 -2 19 1 4 3 -2 6 -13 5 -11 0 -14 -3 -6 -6z"/>
<path d="M5345 1273 c-11 -3 -24 -9 -30 -13 -5 -4 -18 -6 -28 -5 -9 2 -15 -1
-12 -5 5 -8 55 -4 64 6 2 2 10 -1 18 -7 10 -9 13 -7 13 10 0 11 -1 20 -2 20
-2 -1 -12 -4 -23 -6z"/>
<path d="M5211 1250 c10 -7 49 -2 49 5 0 2 -14 3 -31 3 -17 -1 -25 -4 -18 -8z"/>
<path d="M5351 1194 c0 -11 3 -14 6 -6 3 7 2 16 -1 19 -3 4 -6 -2 -5 -13z"/>
<path d="M6198 1150 c-17 -24 -29 -30 -60 -30 -41 0 -50 -13 -19 -30 13 -6 17
-17 14 -30 -4 -16 0 -20 21 -20 14 0 26 5 26 11 0 5 4 8 9 4 5 -3 12 -1 16 5
3 5 17 10 31 10 15 0 24 6 24 15 0 9 -9 15 -25 15 -28 0 -33 21 -10 40 12 10
16 9 21 -4 3 -9 15 -16 25 -16 25 0 25 36 0 50 -32 16 -49 12 -73 -20z"/>
<path d="M5990 1083 c-14 -3 -28 -10 -32 -17 -12 -18 -9 -46 6 -46 7 0 26 -10
41 -22 l28 -22 -54 -11 c-40 -7 -55 -15 -57 -29 -3 -15 0 -18 19 -13 13 4 48
7 77 7 49 0 52 1 52 26 0 16 -13 39 -35 61 -41 41 -42 43 -15 36 15 -4 20 0
20 16 0 21 -4 22 -50 14z"/>
<path d="M5332 1045 c0 -16 2 -22 5 -12 2 9 2 23 0 30 -3 6 -5 -1 -5 -18z"/>
<path d="M5822 977 c-6 -16 -12 -37 -12 -48 0 -10 -4 -19 -10 -19 -5 0 -10 9
-10 20 0 29 -17 25 -24 -5 -8 -31 1 -48 20 -41 9 4 18 -4 24 -19 10 -26 19
-29 58 -19 30 8 28 34 -3 34 -23 0 -24 4 -27 63 -3 59 -4 61 -16 34z"/>
<path d="M5311 914 c0 -11 3 -14 6 -6 3 7 2 16 -1 19 -3 4 -6 -2 -5 -13z"/>
<path d="M5416 838 c-4 -18 -9 -48 -13 -65 l-5 -33 46 0 c42 0 46 2 46 25 0
13 -4 34 -9 47 -5 13 -13 32 -17 43 -6 15 -10 6 -14 -35 l-7 -55 -1 53 c-2 58
-16 69 -26 20z"/>
<path d="M5296 798 c-3 -13 -5 -32 -5 -43 0 -19 1 -19 11 2 6 13 19 25 30 29
24 7 18 28 -9 32 -14 2 -22 -4 -27 -20z"/>
<path d="M5330 750 c0 -6 -12 -15 -26 -20 -29 -11 -28 -33 2 -38 23 -3 69 41
59 57 -8 14 -35 14 -35 1z"/>
<path d="M5261 554 c0 -11 3 -14 6 -6 3 7 2 16 -1 19 -3 4 -6 -2 -5 -13z"/>
<path d="M5252 490 c0 -14 2 -19 5 -12 2 6 2 18 0 25 -3 6 -5 1 -5 -13z"/>
<path d="M5242 420 c0 -14 2 -19 5 -12 2 6 2 18 0 25 -3 6 -5 1 -5 -13z"/>
<path d="M5232 355 c0 -16 2 -22 5 -12 2 9 2 23 0 30 -3 6 -5 -1 -5 -18z"/>
<path d="M5222 265 c0 -16 2 -22 5 -12 2 9 2 23 0 30 -3 6 -5 -1 -5 -18z"/>
<path d="M5212 210 c0 -14 2 -19 5 -12 2 6 2 18 0 25 -3 6 -5 1 -5 -13z"/>
<path d="M5201 134 c0 -11 3 -14 6 -6 3 7 2 16 -1 19 -3 4 -6 -2 -5 -13z"/>
<path d="M5186 75 c-3 -9 -6 -31 -5 -48 1 -28 2 -26 10 12 9 46 6 65 -5 36z"/>
</g>
</svg>
